<?xml version="1.0" encoding="UTF-8"?>
<svg viewBox="0 0 174.77438 70.937378" xmlns="http://www.w3.org/2000/svg">
 <g transform="translate(-285.96 -127.7)" stroke="#000">
  <g transform="matrix(.10222 0 0 .10222 350.08 157.98)" fill-rule="evenodd">
   <g transform="translate(-623.7 -140.13)">
    <path transform="matrix(.70025 0 0 .85898 336.92 -59.531)" d="m-254.51 245.44c0 33.782-27.417 61.199-61.199 61.199s-75.479-27.417-75.479-61.199 41.698-61.199 75.479-61.199 61.199 27.417 61.199 61.199z"/>
    <path transform="matrix(.87411 0 0 .85824 337.16 222.28)" d="m-254.51 245.44a61.199 61.199 0 1 1 -122.4 0 61.199 61.199 0 1 1 122.4 0z"/>
    <path d="m734.36 77.536 1.3738 42.501-42.734-4.1213c8.0974-16.586 2.8521-42.067 41.36-38.38z" stroke-width=".24385"/>
    <path d="m672.22 110.41c-22.883 0-43.206 6.8714-55.969 17.5h-313.16v52.438h313.16c7.2447 6.0333 16.923 10.833 28.125 13.875 70.62-12.15 101.76-48.265 104.09-80.094-8.6415-2.3907-66.197-3.7188-76.25-3.7188z"/>
    <path d="m132.34 210.12 27.011 33.866c-17.453 15.361 33.33 51.223 19.769 71.065-10.209 14.937-9.634 44.638-28.21 47.596-27.15 4.3224-21.073 28.877-23.193 48.675-1.548 14.46-11.569 26.817-17.203 40.399l-92.953-51.725c47.469-56.665 85.796-119.91 114.78-189.88z"/>
    <path d="m566.82 104.5a5.4217 9.7293 0 0 1 5.4217 9.7293v81.726a5.4217 9.7293 0 0 1 -5.4217 9.7293 5.4217 9.7293 0 0 1 -5.4217 -9.7293v-81.726a5.4217 9.7293 0 0 1 5.4217 -9.7293"/>
    <path d="m474.86 104.5a5.4217 9.7293 0 0 1 5.4217 9.7293v81.726a5.4217 9.7293 0 0 1 -5.4217 9.7293 5.4217 9.7293 0 0 1 -5.4217 -9.7293v-81.726a5.4217 9.7293 0 0 1 5.4217 -9.7293"/>
    <path d="m520.35 104.5a4.936 9.7293 0 0 1 4.936 9.7293v81.726a4.936 9.7293 0 0 1 -4.936 9.7293 4.936 9.7293 0 0 1 -4.936 -9.7293v-81.726a4.936 9.7293 0 0 1 4.936 -9.7293"/>
    <path d="m225.89 235.8c-25.004 15.81 5.9405 71.896 30.316 72.095 3.8468 0.03141 9.5394 4.0292 12.694 0.58198-19.901-17.381-33.351-32.386-23.124-64.292l-19.887-8.3845z" stroke-width=".65121"/>
    <path d="m79.656 96.812c36.439 25.062 84.638 34.789 36.906 79.656v112.69h54.438c-0.00968 0.32167-8.0312 0.64561-8.0312 0.96875 0 27.347 42.821 49.531 85.719 49.531s77.719-22.184 77.719-49.531c0-0.32314-0.02157-0.64708-0.03125-0.96875h40.424l33.42-61.45v-105.64h-191.31c-54.824-39.724-88.703-23.596-129.25-25.25zm166.12 161.22c35.94-1e-5 65.094 14.818 65.094 33.062s-29.154 33.062-65.094 33.062-65.125-14.818-65.125-33.062 29.185-33.062 65.125-33.062z"/>
    <path transform="matrix(.86884 .4951 -.4951 .86884 240.85 239.65)" d="m12.364 253.12a74.184 13.051 0 1 1 -148.37 0 74.184 13.051 0 1 1 148.37 0z"/>
    <path d="m428.88 104.5a5.4217 9.7293 0 0 1 5.4217 9.7293v81.726a5.4217 9.7293 0 0 1 -5.4217 9.7293 5.4217 9.7293 0 0 1 -5.4217 -9.7293v-81.726a5.4217 9.7293 0 0 1 5.4217 -9.7293"/>
    <path d="m155.44 192.01h202.02a9.7293 9.7293 0 0 1 9.7293 9.7293v34.94a9.7293 9.7293 0 0 1 -9.7293 9.7293h-202.02a9.7293 9.7293 0 0 1 -9.7293 -9.7293v-34.94a9.7293 9.7293 0 0 1 9.7293 -9.7293"/>
    <path d="m270.07 197.84h69.911a9.7293 9.7293 0 0 1 9.7293 9.7293v19.398a9.7293 9.7293 0 0 1 -9.7293 9.7293h-69.911a9.7293 9.7293 0 0 1 -9.7293 -9.7293v-19.398a9.7293 9.7293 0 0 1 9.7293 -9.7293" stroke-width="3"/>
    <path d="m275.58 137.43h84.983a9.7093 9.7093 0 0 1 9.7093 9.7093v19.358a9.7093 9.7093 0 0 1 -9.7093 9.7093h-84.983a9.7093 9.7093 0 0 1 -9.7093 -9.7093v-19.358a9.7093 9.7093 0 0 1 9.7093 -9.7093" stroke-width="1.0797"/>
    <path transform="matrix(.51127 -.42535 .42535 .51127 -219.11 261.11)" d="m537.15 330.74a38.466 13.738 0 1 1 -76.932 0 38.466 13.738 0 1 1 76.932 0z" stroke-width="3.0072"/>
    <path transform="matrix(-.46104 -.47933 .47933 -.46104 305.61 609.61)" d="m537.15 330.74a38.466 13.738 0 1 1 -76.932 0 38.466 13.738 0 1 1 76.932 0z" stroke-width="3.0072"/>
   </g>
   <path d="m661.34 120.5 111.57-80.632-301.5 33.334 105.86-58.891-241.71 24.24 86.897-43.135-399.78 30.541 527.28-84.373-87.947 54.427 283.47-37.549-135.64 72.118 285.8-42.774-97.257 75.325 283.47-37.549-420.5 94.92z" stroke-width="1.1737"/>
  </g>
  <path transform="matrix(.90776 0 0 .90776 320.37 150.3)" d="m53.231 14.179a37.971 37.971 0 1 1 -75.943 0 37.971 37.971 0 1 1 75.943 0z" fill="none" stroke-width="2.2032"/>
 </g>
</svg>
